REM DIRINDEX 1\3,1\2\4,1\2\5
REM DIRNAME cjc101,folder01,folder02,folder03,folder04
TITLE ""
FILE "II-07-01.mp3" MP3
  TRACK 01 AUDIO
    TITLE "0:"
    INDEX 01 00:00:00
  TRACK 02 AUDIO
    TITLE "4:cjc101_1282"
    INDEX 01 00:00:03
  TRACK 03 AUDIO
    TITLE "0:"
    INDEX 01 00:01:32
  TRACK 04 AUDIO
    TITLE "5:cjc101_1283"
    INDEX 01 00:01:66
  TRACK 05 AUDIO
    TITLE "0:"
    INDEX 01 00:05:65
